<svg viewBox="0 0 96 96" xmlns="http://www.w3.org/2000/svg" xmlns:xlink="http://www.w3.org/1999/xlink" id="Icons_Disconnected" overflow="hidden"><style>
.MsftOfcResponsive_Fill_856df0 {
 fill:#856DF0; 
}
</style>
<path d="M50 41 50 20 33.74 20C32.6354 15.722 28.272 13.1495 23.994 14.254 19.7161 15.3586 17.1435 19.722 18.2481 24 19.3526 28.278 23.7161 30.8505 27.994 29.746 30.8119 29.0184 33.0124 26.8179 33.74 24L46 24 46 41 40 41 40 45 56 45 56 41Z" class="MsftOfcResponsive_Fill_856df0" fill="#856DF0"/><path d="M70 66C66.3542 66.0027 63.1714 68.47 62.26 72L50 72 50 55 56 55 56 51 40 51 40 55 46 55 46 76 62.26 76C63.3646 80.278 67.728 82.8505 72.006 81.746 76.2839 80.6414 78.8565 76.278 77.7519 72 76.8394 68.4657 73.6502 65.9973 70 66Z" class="MsftOfcResponsive_Fill_856df0" fill="#856DF0"/></svg>