<svg viewBox="0 0 96 96" xmlns="http://www.w3.org/2000/svg" xmlns:xlink="http://www.w3.org/1999/xlink" id="Icons_Screwdriver" overflow="hidden"><style>
.MsftOfcResponsive_Fill_856df0 {
 fill:#856DF0; 
}
</style>
<path d="M88.2 4 78.7 11.6 75.9 16.9 76 17 42 51 37.9 46.8 35 49.7C36.1 50.8 36.1 52.5 35 53.5 33.9 54.6 32.2 54.6 31.2 53.5L5.4 79.2 5.5 79.3C3.2 82.5 3.6 86.9 6.4 89.7 9.2 92.5 13.6 92.9 16.8 90.6L16.9 90.7 17.9 89.7 42.6 65C41.5 63.9 41.5 62.2 42.6 61.2 43.7 60.1 45.4 60.1 46.4 61.2L49.2 58.4 45 54.1 79 20.1 79.1 20.2 84.4 17.4 92 7.8 88.2 4Z" class="MsftOfcResponsive_Fill_856df0" fill="#856DF0"/></svg>